<svg version="1.2" xmlns="http://www.w3.org/2000/svg" viewBox="0 0 1080 270" width="1080" height="270"><style>.a{fill:#64ee85}.b{fill:#fff}</style><path fill-rule="evenodd" class="a" d="m229.1 29.6c0-8.8-7.2-16-16-16h-162.9l35.9 27.1h105.6c3.9 0 7.1 3.2 7.1 7.2 0 3.9-3.2 7.1-7.1 7.1h-86.6l23.3 17.5h63.3c3.9 0 7.1 3.2 7.1 7.2 0 3.9-3.2 7.1-7.1 7.1h-44.3l2.1 1.6c0 0 15.9 9.2 15.9 16v79.5h47.8c8.8 0 15.9-7.1 15.9-15.9zm-92.3 63.7l-108.2-79.6c-8.8 0-15.9 7.1-15.9 15.9v130.5c0 7 4.4 8.2 15.9 15.9l108.2 79.6c8.8 0 15.9-7.1 15.9-15.9v-130.5c-0.2-5.8-15.9-15.9-15.9-15.9z"/><path fill-rule="evenodd" class="b" d="m261 69.3h77.1q-2 7.3-3.8 13-1.5 4.8-2.8 8.8-1.3 4-1.4 4h-39.6l0.4 4v22.6h37v26.2h-37v52.2h-29.9c0 0 0-130.8 0-130.8zm118.1 35.2v95.6h-27.6v-66.2l0.9-6.6h-15.7l12.4-22.8zm-0.7-7.9h-27.5v-24.9h27.5zm24.2 30.6h-15.4l12.1-22.8h26.5l2.4 10.3q4.6-4.9 10.9-8.2 6.3-3.3 14.6-3.3 16.6 0 24.7 8.8 8 8.9 8 28.2v59.9h-27.8v-55.2q0-8.4-4.1-12.1-4.1-3.6-10.6-3.6-5.3 0-9.5 3.5-4.2 3.6-4.2 11.9v55.5h-27.6zm175.4 26h-19.2l12.1-23.5h35.5v66.3q-10.6 3.7-20.4 4.9-9.8 1.2-17.1 1.2-16.2 0-28.1-5-11.9-4.9-19.7-13.7-7.9-8.8-11.8-21.1-3.8-12.3-3.8-26.9 0-14.7 4-27.1 4-12.5 11.8-21.5 7.8-9.1 19.4-14.1 11.5-5.1 26.3-5.1 8.6 0 16.6 1.3 8 1.3 17.9 5.3l-12.5 22.9q-3.5-1.5-8.4-2.3-5-0.8-10.6-0.8-16.3 0-24.7 10.3-8.3 10.2-8.3 31.1 0 20.9 8.2 30.6 8.3 9.7 24.9 9.7 4.4 0 7.9-0.7c0 0 0-21.8 0-21.8zm84.1-15.2q1.5 0 3.9 0.1 2.5 0 5.6 0.2-0.2-7.1-5-9.2-4.9-2.1-12.6-2.1-4.2 0-9.7 1-5.5 1-11.9 3l-2.9-10.1q-0.6-2-1.6-5.8-1-3.9-1.3-6.1 9.1-3.1 17.3-4.5 8.1-1.3 14.7-1.3 19.4 0 30 9.2 10.7 9.3 10.7 29.6v53.7q-7.2 2-16.5 3.9-9.4 1.9-20.2 1.9-9.5 0-17.3-1.6-7.8-1.7-13.3-5.5-5.6-3.9-8.6-10.1-3.1-6.2-3.1-15.2 0-9 3.8-15 3.7-6.1 9.7-9.6 5.9-3.6 13.4-5.1 7.4-1.4 14.9-1.4zm9.5 20.1q-1.8-0.4-3.8-0.5-2 0-3.5 0-7.7 0-12.5 2.3-4.7 2.4-4.7 8.3 0 3.6 1.7 5.7 1.8 2.2 4.3 3.2 2.6 1 5.4 1.2 2.9 0.1 4.9 0.1 3.6 0 8.2-0.9zm48.4-30.7h-11.4v-23.1h11.4v-26h27.4v26h22.8l-12.9 23.1h-10.8l0.9 5.8v28.8q0 4.7 0.7 7.7 0.6 2.9 2 4.5 1.4 1.7 3.5 2.3 2.1 0.7 4.8 0.7 2 0 5-0.5 2.9-0.4 6.2-1l1.5 12.3 1.1 11q-5.3 1.1-9.7 1.6-4.4 0.6-9 0.6-17 0-25.3-7.9-8.2-7.9-8.2-26zm66.6-33.5q0 0 0 0zm-2.4 0.1h-13.1l12.4-22.3h30.8v41.4q3.8-3.7 9.5-6.5 5.7-2.8 13.6-2.8 16.3 0 24.2 9 8 9.1 8 28.9v58.4h-27.8v-54.8q0-7.1-3.3-11.3-3.3-4.2-10.1-4.2-5.9 0-10 3.2-4.1 3.2-4.1 12.1v55h-28l0.3-106.2q0 0.1-2.4 0.1zm144 9.4q9.5 0 17.1 2.6 7.6 2.7 12.8 8.6 5.1 6 7.9 15.3 2.7 9.4 2.7 22.6v2.8l-0.4 5.8h-51.3l-3.8-0.6q0.2 5.3 1.2 8.5 1 3.3 2.9 5.1 1.9 1.8 4.7 2.5 2.7 0.8 6.2 1 5.7 0.3 9.8-1.7 4.1-2 7.8-8.2 5.7 1.8 10.4 3.5 4.1 1.4 7.4 2.5 3.1 1.1 3.3 0.9-6.6 13.8-16.1 20.1-9.4 6.3-22.6 6.3-9.7 0-17.6-2.6-7.8-2.5-13.3-8.3-5.5-5.8-8.5-15-3.1-9.3-3.1-22.6 0-13 3.1-22.3 3-9.2 8.5-15.2 5.5-5.9 13.3-8.8 7.9-2.8 17.6-2.8zm38.7 71.2q0 0 0 0 0 0 0 0zm-28.6-34.6l2.7 0.4q-0.3-6.4-3.3-10-3.1-3.6-9.5-3.6-7.3 0-10.5 3.6-3.2 3.6-3.9 10 0.9-0.2 1.6-0.3 0.7-0.1 1.6-0.1c0 0 21.3 0 21.3 0zm78-32.2q2.2-1.5 6.2-2.9 3.9-1.3 8.8-1.3 4.3 0 6.9 0.3 2.7 0.4 2.7 0.2v24.4q-4.2-0.4-8.3-0.2-3.5 0.4-7.2 1.2-3.8 0.8-6.9 3-3.6 2.6-5.2 7-1.6 4.4-1.6 12.1v48.7h-27.4v-72.7h-14.9l11.8-23.3h30.5v7.1q1-0.7 1.7-1.4 0.7-0.6 1.5-1.2 0.7-0.7 1.4-1z"/></svg>