<svg version="1.2" baseProfile="tiny-ps" xmlns="http://www.w3.org/2000/svg" viewBox="0 0 1619 1619" width="1619" height="1619">
	<title>Volkswagen_logo_2019-svg</title>
	<style>
		tspan { white-space:pre }
		.shp0 { fill: #ffffff } 
	</style>
	<g id="Layer">
		<g id="Layer">
			<g id="Layer">
				<path id="Layer" fill-rule="evenodd" class="shp0" d="M0.3 809.24C0.3 360.85 361.28 -0.13 809.67 -0.13C1258.07 -0.13 1619.05 360.85 1619.05 809.24C1619.05 1257.63 1258.07 1618.61 809.67 1618.61C361.28 1618.61 0.3 1257.63 0.3 809.24ZM819.39 632.8L1049.25 114.8C974.79 87.28 893.85 72.71 809.67 72.71C725.5 72.71 644.56 87.28 570.1 114.8L799.96 632.8C803.2 637.65 804.82 642.51 809.67 642.51C814.53 642.51 816.15 639.27 819.39 632.8ZM584.67 1165.36L720.64 844.85C725.5 833.52 731.97 831.9 741.69 831.9L871.19 831.9C880.9 831.9 887.37 833.52 892.23 844.85L1033.06 1165.36C1036.3 1170.22 1037.92 1175.08 1042.77 1175.08C1047.63 1175.08 1050.87 1170.22 1052.49 1165.36L1428.03 414.27C1361.67 312.29 1271.02 226.49 1164.18 166.6L895.47 763.92C890.61 775.25 884.14 776.87 874.42 776.87L744.92 776.87C736.83 776.87 728.74 773.63 725.5 763.92L456.79 166.6C348.33 226.49 259.3 312.29 192.93 414.27L565.24 1165.36C568.48 1170.22 570.1 1175.08 574.96 1175.08C579.81 1175.08 583.05 1170.22 584.67 1165.36ZM1546.2 809.24C1546.2 718.59 1530.01 632.8 1499.26 551.86L1070.29 1414.65C1065.43 1425.98 1057.34 1435.69 1044.39 1435.69C1031.44 1435.69 1023.35 1425.98 1018.49 1414.65L821 972.73C817.77 967.88 816.15 963.02 811.29 963.02C806.44 963.02 803.2 967.88 801.58 972.73L604.09 1414.65C599.24 1425.98 591.14 1435.69 578.19 1435.69C565.24 1435.69 557.15 1425.98 552.29 1414.65L123.33 551.86C92.57 632.8 76.38 718.59 76.38 809.24C76.38 1212.31 406.61 1544.15 809.67 1544.15C1212.74 1544.15 1542.96 1212.31 1546.2 809.24Z" />
			</g>
		</g>
	</g>
</svg>